<?xml version="1.0" encoding="UTF-8"?>
<!-- Created with Inkscape (http://www.inkscape.org/) -->
<svg width="133.67mm" height="40.551mm" version="1.1" viewBox="0 0 133.67 40.551" xmlns="http://www.w3.org/2000/svg" xmlns:cc="http://creativecommons.org/ns#" xmlns:dc="http://purl.org/dc/elements/1.1/" xmlns:rdf="http://www.w3.org/1999/02/22-rdf-syntax-ns#" xmlns:xlink="http://www.w3.org/1999/xlink">
 <defs>
  <filter id="filter1070" x="0" y="0" width="1" height="1" color-interpolation-filters="sRGB">
   <feBlend in2="BackgroundImage" mode="luminosity"/>
  </filter>
  <filter id="filter1070-1" x="0" y="0" width="1" height="1" color-interpolation-filters="sRGB">
   <feBlend in2="BackgroundImage" mode="luminosity"/>
  </filter>
 </defs>
 <g transform="translate(-6.3862 -36.955)">
  <g transform="matrix(.26458 0 0 .26458 -237.4 -506.26)">
   <g transform="matrix(1.25 0 0 -1.25 922.14 2445.6)" filter="url(#filter1070)">
    <g transform="translate(194.02 587.62)">
     <path d="m0 0c0 2.027 1.646 3.738 3.674 3.738 1.139 0 1.836-0.381 2.722-1.142l5.702-5.194c1.393 2.407 2.152 5.258 2.152 8.426v0.127c0 8.613-6.271 15.772-15.074 15.772-8.804 0-14.948-7.032-14.948-15.645v-0.127c0-8.615 6.27-15.709 15.075-15.709 2.913 0 5.51 0.76 7.663 2.025l-5.511 4.69c-0.885 0.76-1.455 1.709-1.455 3.039m-23.943 5.828v0.127c0 12.477 9.628 22.928 23.246 22.928s23.119-10.324 23.119-22.801v-0.127c0-5.004-1.648-9.756-4.498-13.619l2.85-2.344c0.887-0.762 1.457-1.711 1.457-3.041 0-2.027-1.646-3.736-3.673-3.736-1.14 0-2.027 0.443-2.724 1.14l-3.167 2.85c-3.737-2.662-8.36-4.182-13.491-4.182-13.618 0-23.119 10.325-23.119 22.805" fill="#231f20"/>
    </g>
    <g transform="translate(225.18 590.21)">
     <path d="m0 0v21.98c0 2.153 1.711 3.866 3.928 3.866 2.154 0 3.864-1.713 3.864-3.866v-21.662c0-8.234 4.244-12.605 11.21-12.605 6.904 0 11.148 4.115 11.148 12.287v21.98c0 2.153 1.71 3.866 3.927 3.866 2.153 0 3.864-1.713 3.864-3.866v-21.599c0-13.238-7.474-19.889-19.065-19.889-11.528 0-18.876 6.651-18.876 19.508" fill="#231f20"/>
    </g>
    <g transform="translate(299.16 589.01)">
     <path d="m0 0-7.791 17.926-7.791-17.926zm-29.01-12.541 16.468 36.738c0.888 1.963 2.471 3.166 4.688 3.166h0.379c2.217 0 3.738-1.203 4.624-3.166l16.469-36.738c0.317-0.57 0.444-1.139 0.444-1.647 0-2.089-1.584-3.736-3.676-3.736-1.834 0-3.101 1.074-3.799 2.723l-3.609 8.297h-21.537l-3.736-8.549c-0.634-1.584-1.965-2.471-3.611-2.471-2.027 0-3.61 1.582-3.61 3.61 0 0.568 0.189 1.14 0.506 1.773" fill="#231f20"/>
    </g>
    <g transform="translate(338.18 578.5)">
     <path d="m0 0c9.311 0 15.393 6.27 15.393 14.949v0.127c0 8.676-6.082 15.072-15.393 15.072h-8.742v-30.148zm-16.533 33.318c0 2.217 1.713 3.924 3.928 3.924h12.605c13.936 0 23.563-9.562 23.563-22.039v-0.127c0-12.48-9.627-22.17-23.563-22.17h-12.605c-2.215 0-3.928 1.709-3.928 3.928z" fill="#231f20"/>
    </g>
    <g transform="translate(390.37 593.76)">
     <path d="m0 0c5.574 0 9.121 2.914 9.121 7.41v0.125c0 4.752-3.422 7.348-9.184 7.348h-11.339v-14.883zm-19.193 18.053c0 2.217 1.711 3.924 3.927 3.924h15.836c5.575 0 9.944-1.645 12.795-4.432 2.342-2.406 3.672-5.701 3.672-9.565v-0.126c0-7.094-4.117-11.403-10.07-13.241l8.486-10.703c0.762-0.949 1.268-1.773 1.268-2.976 0-2.155-1.836-3.61-3.739-3.61-1.771 0-2.912 0.824-3.798 2.026l-10.768 13.746h-9.818v-11.91c0-2.153-1.709-3.862-3.864-3.862-2.216 0-3.927 1.709-3.927 3.862z" fill="#231f20"/>
    </g>
    <g transform="translate(417.41 612.19)">
     <path d="m0 0c0 2.152 1.709 3.865 3.926 3.865 2.154 0 3.865-1.713 3.865-3.865v-37.246c0-2.152-1.711-3.861-3.865-3.861-2.217 0-3.926 1.709-3.926 3.861z" fill="#231f20"/>
    </g>
   </g>
   <g transform="matrix(1.25 0 0 -1.25 735.83 2558.3)" filter="url(#filter1070)">
    <g transform="translate(249.56 664.14)">
     <path d="m0 0h-49.356c-4.376 0-7.919 3.545-7.919 7.922v49.355c0 4.379 3.543 7.92 7.919 7.92h49.356c4.375 0 7.92-3.541 7.92-7.92v-49.355c0-4.377-3.545-7.922-7.92-7.922m8.509-4.841c0 2.349 1.904 4.253 4.252 4.253h17.362v74.672c0 7.355-5.957 13.314-13.311 13.314h-82.973c-7.353 0-13.316-5.959-13.316-13.314v-82.97c0-7.355 5.963-13.318 13.316-13.318h74.67z" fill="#231f20"/>
    </g>
    <g transform="translate(292.69 632.33)">
     <path d="m0 0c0-1.879-1.523-3.402-3.401-3.402h-22.757c-1.879 0-3.402 1.523-3.402 3.402v22.756c0 1.879 1.523 3.402 3.402 3.402h22.757c1.878 0 3.401-1.523 3.401-3.402z" fill="#009391"/>
    </g>
    <g transform="translate(305.27 660.91)">
     <path d="m0 0c0-0.781-0.635-1.417-1.417-1.417h-8.726c-0.782 0-1.417 0.636-1.417 1.417v8.727c0 0.781 0.635 1.416 1.417 1.416h8.726c0.782 0 1.417-0.635 1.417-1.416z" fill="#74c1bc"/>
    </g>
   </g>
  </g>
  <g transform="matrix(.26458 0 0 .26458 -244.55 -391.37)">
   <g transform="matrix(1.25 0 0 -1.25 922.14 2445.6)" filter="url(#filter1070-1)">
    <g transform="translate(194.02 587.62)">
     <path d="m0 0c0 2.027 1.646 3.738 3.674 3.738 1.139 0 1.836-0.381 2.722-1.142l5.702-5.194c1.393 2.407 2.152 5.258 2.152 8.426v0.127c0 8.613-6.271 15.772-15.074 15.772-8.804 0-14.948-7.032-14.948-15.645v-0.127c0-8.615 6.27-15.709 15.075-15.709 2.913 0 5.51 0.76 7.663 2.025l-5.511 4.69c-0.885 0.76-1.455 1.709-1.455 3.039m-23.943 5.828v0.127c0 12.477 9.628 22.928 23.246 22.928s23.119-10.324 23.119-22.801v-0.127c0-5.004-1.648-9.756-4.498-13.619l2.85-2.344c0.887-0.762 1.457-1.711 1.457-3.041 0-2.027-1.646-3.736-3.673-3.736-1.14 0-2.027 0.443-2.724 1.14l-3.167 2.85c-3.737-2.662-8.36-4.182-13.491-4.182-13.618 0-23.119 10.325-23.119 22.805" fill="#231f20"/>
    </g>
    <g transform="translate(225.18 590.21)">
     <path d="m0 0v21.98c0 2.153 1.711 3.866 3.928 3.866 2.154 0 3.864-1.713 3.864-3.866v-21.662c0-8.234 4.244-12.605 11.21-12.605 6.904 0 11.148 4.115 11.148 12.287v21.98c0 2.153 1.71 3.866 3.927 3.866 2.153 0 3.864-1.713 3.864-3.866v-21.599c0-13.238-7.474-19.889-19.065-19.889-11.528 0-18.876 6.651-18.876 19.508" fill="#231f20"/>
    </g>
    <g transform="translate(299.16 589.01)">
     <path d="m0 0-7.791 17.926-7.791-17.926zm-29.01-12.541 16.468 36.738c0.888 1.963 2.471 3.166 4.688 3.166h0.379c2.217 0 3.738-1.203 4.624-3.166l16.469-36.738c0.317-0.57 0.444-1.139 0.444-1.647 0-2.089-1.584-3.736-3.676-3.736-1.834 0-3.101 1.074-3.799 2.723l-3.609 8.297h-21.537l-3.736-8.549c-0.634-1.584-1.965-2.471-3.611-2.471-2.027 0-3.61 1.582-3.61 3.61 0 0.568 0.189 1.14 0.506 1.773" fill="#231f20"/>
    </g>
    <g transform="translate(338.18 578.5)">
     <path d="m0 0c9.311 0 15.393 6.27 15.393 14.949v0.127c0 8.676-6.082 15.072-15.393 15.072h-8.742v-30.148zm-16.533 33.318c0 2.217 1.713 3.924 3.928 3.924h12.605c13.936 0 23.563-9.562 23.563-22.039v-0.127c0-12.48-9.627-22.17-23.563-22.17h-12.605c-2.215 0-3.928 1.709-3.928 3.928z" fill="#231f20"/>
    </g>
    <g transform="translate(390.37 593.76)">
     <path d="m0 0c5.574 0 9.121 2.914 9.121 7.41v0.125c0 4.752-3.422 7.348-9.184 7.348h-11.339v-14.883zm-19.193 18.053c0 2.217 1.711 3.924 3.927 3.924h15.836c5.575 0 9.944-1.645 12.795-4.432 2.342-2.406 3.672-5.701 3.672-9.565v-0.126c0-7.094-4.117-11.403-10.07-13.241l8.486-10.703c0.762-0.949 1.268-1.773 1.268-2.976 0-2.155-1.836-3.61-3.739-3.61-1.771 0-2.912 0.824-3.798 2.026l-10.768 13.746h-9.818v-11.91c0-2.153-1.709-3.862-3.864-3.862-2.216 0-3.927 1.709-3.927 3.862z" fill="#231f20"/>
    </g>
    <g transform="translate(417.41 612.19)">
     <path d="m0 0c0 2.152 1.709 3.865 3.926 3.865 2.154 0 3.865-1.713 3.865-3.865v-37.246c0-2.152-1.711-3.861-3.865-3.861-2.217 0-3.926 1.709-3.926 3.861z" fill="#231f20"/>
    </g>
   </g>
   <g transform="matrix(1.25 0 0 -1.25 735.83 2558.3)" filter="url(#filter1070-1)">
    <g transform="translate(249.56 664.14)">
     <path d="m0 0h-49.356c-4.376 0-7.919 3.545-7.919 7.922v49.355c0 4.379 3.543 7.92 7.919 7.92h49.356c4.375 0 7.92-3.541 7.92-7.92v-49.355c0-4.377-3.545-7.922-7.92-7.922m8.509-4.841c0 2.349 1.904 4.253 4.252 4.253h17.362v74.672c0 7.355-5.957 13.314-13.311 13.314h-82.973c-7.353 0-13.316-5.959-13.316-13.314v-82.97c0-7.355 5.963-13.318 13.316-13.318h74.67z" fill="#231f20"/>
    </g>
    <g transform="translate(292.69 632.33)">
     <path d="m0 0c0-1.879-1.523-3.402-3.401-3.402h-22.757c-1.879 0-3.402 1.523-3.402 3.402v22.756c0 1.879 1.523 3.402 3.402 3.402h22.757c1.878 0 3.401-1.523 3.401-3.402z" fill="#009391"/>
    </g>
    <g transform="translate(305.27 660.91)">
     <path d="m0 0c0-0.781-0.635-1.417-1.417-1.417h-8.726c-0.782 0-1.417 0.636-1.417 1.417v8.727c0 0.781 0.635 1.416 1.417 1.416h8.726c0.782 0 1.417-0.635 1.417-1.416z" fill="#74c1bc"/>
    </g>
   </g>
  </g>
 </g>
</svg>
